<svg xmlns="http://www.w3.org/2000/svg" width="880" height="400" viewBox="0 0 880 400" role="img" aria-label="Sentence lengths before and after a human-voice rewrite"><title>Sentence lengths before and after a human-voice rewrite</title>
<rect x="0.5" y="0.5" width="879" height="399" rx="14" fill="#151B23" stroke="#262C36"/>
<text x="32" y="50" font-family="-apple-system,BlinkMacSystemFont,'Segoe UI','Noto Sans',Helvetica,Arial,sans-serif" font-size="24" font-weight="700" fill="#E6EDF3" text-anchor="start">Same facts. Different rhythm.</text>
<text x="32" y="76" font-family="-apple-system,BlinkMacSystemFont,'Segoe UI','Noto Sans',Helvetica,Arial,sans-serif" font-size="14" font-weight="400" fill="#9198A1" text-anchor="start">Words per sentence in a paragraph a current model wrote, before and after the rewrite. No filler in either.</text>
<text x="64" y="110" font-family="-apple-system,BlinkMacSystemFont,'Segoe UI','Noto Sans',Helvetica,Arial,sans-serif" font-size="15" font-weight="600" fill="#E6EDF3" text-anchor="start">Before</text>
<rect x="64" y="184.9" width="380" height="76.0" fill="#1C222A"/>
<line x1="64" x2="444" y1="326.0" y2="326.0" stroke="#3D444D" stroke-width="1"/>
<text x="56" y="330.0" font-family="-apple-system,BlinkMacSystemFont,'Segoe UI','Noto Sans',Helvetica,Arial,sans-serif" font-size="11" font-weight="400" fill="#9198A1" text-anchor="end">0</text>
<line x1="64" x2="444" y1="260.9" y2="260.9" stroke="#3D444D" stroke-width="1" stroke-dasharray="3 4"/>
<text x="56" y="264.8571428571429" font-family="-apple-system,BlinkMacSystemFont,'Segoe UI','Noto Sans',Helvetica,Arial,sans-serif" font-size="11" font-weight="400" fill="#9198A1" text-anchor="end">12</text>
<line x1="64" x2="444" y1="184.9" y2="184.9" stroke="#3D444D" stroke-width="1" stroke-dasharray="3 4"/>
<text x="56" y="188.85714285714286" font-family="-apple-system,BlinkMacSystemFont,'Segoe UI','Noto Sans',Helvetica,Arial,sans-serif" font-size="11" font-weight="400" fill="#9198A1" text-anchor="end">26</text>
<rect x="68.5" y="244.6" width="14.7" height="81.4" rx="3" fill="#5D6570"/>
<rect x="92.3" y="206.6" width="14.7" height="119.4" rx="3" fill="#5D6570"/>
<rect x="116.0" y="179.4" width="14.7" height="146.6" rx="3" fill="#5D6570"/>
<rect x="139.8" y="255.4" width="14.7" height="70.6" rx="3" fill="#5D6570"/>
<rect x="163.5" y="195.7" width="14.7" height="130.3" rx="3" fill="#5D6570"/>
<rect x="187.3" y="260.9" width="14.7" height="65.1" rx="3" fill="#5D6570"/>
<rect x="211.0" y="260.9" width="14.7" height="65.1" rx="3" fill="#5D6570"/>
<rect x="234.8" y="174.0" width="14.7" height="152.0" rx="3" fill="#5D6570"/>
<rect x="258.5" y="217.4" width="14.7" height="108.6" rx="3" fill="#5D6570"/>
<rect x="282.3" y="201.1" width="14.7" height="124.9" rx="3" fill="#5D6570"/>
<rect x="306.0" y="239.1" width="14.7" height="86.9" rx="3" fill="#5D6570"/>
<rect x="329.8" y="250.0" width="14.7" height="76.0" rx="3" fill="#5D6570"/>
<rect x="353.5" y="190.3" width="14.7" height="135.7" rx="3" fill="#5D6570"/>
<text x="64" y="356.0" font-family="-apple-system,BlinkMacSystemFont,'Segoe UI','Noto Sans',Helvetica,Arial,sans-serif" font-size="12.5" font-weight="400" fill="#9198A1" text-anchor="start">score 15.0 strong-tell  ·  under 9 words 0%  ·  12 to 26 band 85%</text>
<text x="476" y="110" font-family="-apple-system,BlinkMacSystemFont,'Segoe UI','Noto Sans',Helvetica,Arial,sans-serif" font-size="15" font-weight="600" fill="#E6EDF3" text-anchor="start">After</text>
<rect x="476" y="184.9" width="380" height="76.0" fill="#1C222A"/>
<line x1="476" x2="856" y1="326.0" y2="326.0" stroke="#3D444D" stroke-width="1"/>
<text x="468" y="330.0" font-family="-apple-system,BlinkMacSystemFont,'Segoe UI','Noto Sans',Helvetica,Arial,sans-serif" font-size="11" font-weight="400" fill="#9198A1" text-anchor="end">0</text>
<line x1="476" x2="856" y1="260.9" y2="260.9" stroke="#3D444D" stroke-width="1" stroke-dasharray="3 4"/>
<text x="468" y="264.8571428571429" font-family="-apple-system,BlinkMacSystemFont,'Segoe UI','Noto Sans',Helvetica,Arial,sans-serif" font-size="11" font-weight="400" fill="#9198A1" text-anchor="end">12</text>
<line x1="476" x2="856" y1="184.9" y2="184.9" stroke="#3D444D" stroke-width="1" stroke-dasharray="3 4"/>
<text x="468" y="188.85714285714286" font-family="-apple-system,BlinkMacSystemFont,'Segoe UI','Noto Sans',Helvetica,Arial,sans-serif" font-size="11" font-weight="400" fill="#9198A1" text-anchor="end">26</text>
<rect x="480.5" y="304.3" width="14.7" height="21.7" rx="3" fill="#8B93FF"/>
<rect x="504.3" y="288.0" width="14.7" height="38.0" rx="3" fill="#8B93FF"/>
<rect x="528.0" y="271.7" width="14.7" height="54.3" rx="3" fill="#8B93FF"/>
<rect x="551.8" y="201.1" width="14.7" height="124.9" rx="3" fill="#8B93FF"/>
<rect x="575.5" y="271.7" width="14.7" height="54.3" rx="3" fill="#8B93FF"/>
<rect x="599.3" y="163.1" width="14.7" height="162.9" rx="3" fill="#8B93FF"/>
<rect x="623.0" y="277.1" width="14.7" height="48.9" rx="3" fill="#8B93FF"/>
<rect x="646.8" y="304.3" width="14.7" height="21.7" rx="3" fill="#8B93FF"/>
<rect x="670.5" y="163.1" width="14.7" height="162.9" rx="3" fill="#8B93FF"/>
<rect x="694.3" y="315.1" width="14.7" height="10.9" rx="3" fill="#8B93FF"/>
<rect x="718.0" y="250.0" width="14.7" height="76.0" rx="3" fill="#8B93FF"/>
<rect x="741.8" y="266.3" width="14.7" height="59.7" rx="3" fill="#8B93FF"/>
<rect x="765.5" y="266.3" width="14.7" height="59.7" rx="3" fill="#8B93FF"/>
<rect x="789.3" y="298.9" width="14.7" height="27.1" rx="3" fill="#8B93FF"/>
<rect x="813.0" y="260.9" width="14.7" height="65.1" rx="3" fill="#8B93FF"/>
<rect x="836.8" y="201.1" width="14.7" height="124.9" rx="3" fill="#8B93FF"/>
<text x="476" y="356.0" font-family="-apple-system,BlinkMacSystemFont,'Segoe UI','Noto Sans',Helvetica,Arial,sans-serif" font-size="12.5" font-weight="400" fill="#9198A1" text-anchor="start">score 0.0 clean  ·  under 9 words 31%  ·  12 to 26 band 25%</text>
<text x="848" y="378" font-family="-apple-system,BlinkMacSystemFont,'Segoe UI','Noto Sans',Helvetica,Arial,sans-serif" font-size="11.5" font-weight="400" fill="#9198A1" text-anchor="end">Shaded: the 12 to 26 word band model prose collapses into. Source: skills/human-voice/examples/modern-ai-*.md</text>
</svg>
